<?xml version="1.0" encoding="utf-8"?>
<!-- Generator: Adobe Illustrator 16.0.4, SVG Export Plug-In . SVG Version: 6.00 Build 0)  -->
<!DOCTYPE svg PUBLIC "-//W3C//DTD SVG 1.1//EN" "http://www.w3.org/Graphics/SVG/1.1/DTD/svg11.dtd">
<svg version="1.1" xmlns="http://www.w3.org/2000/svg" xmlns:xlink="http://www.w3.org/1999/xlink" x="0px" y="0px" width="100px"
	 height="100px" viewBox="0 0 100 100" enable-background="new 0 0 100 100" xml:space="preserve">
<g id="Layer_1">
	<rect x="-177.708" y="-701.671" fill="none" width="69.42" height="54.773"/>
	<text transform="matrix(1 0 0 1 -177.708 -667.3994)" font-family="'HelveticaNeue'" font-size="48">GZ</text>
	<path fill="none" d="M51.164-681.497c0.869,5.9,3.743,10.722,8.563,14.438l15.468-14.438H51.164z"/>
	<path d="M51.164-681.497h24.031L59.728-667.06c1.252,0.965,2.63,1.857,4.146,2.672l23.689-22.109H50.922
		c-0.013,0.334-0.043,0.656-0.043,1C50.879-684.112,50.976-682.78,51.164-681.497z"/>
	<path d="M64.518-658.497h-6.955l2.502-2.336c-1.396-0.845-2.735-1.777-3.998-2.811l-10.871,10.146h41.184v-2.826l-0.012,2.5
		C80.355-653.851,72.047-655.108,64.518-658.497z"/>
	<path d="M48.379-681.497h2.785c-0.188-1.283-0.285-2.615-0.285-4c0-0.344,0.03-0.666,0.043-1h-2.543V-681.497z"/>
	<path d="M64.518-658.497c7.529,3.389,15.838,4.646,21.85,4.674l0.012-2.5v-2.174H64.518z"/>
	<path d="M63.873-664.388c-1.516-0.814-2.894-1.707-4.146-2.672l-3.661,3.416c1.263,1.033,2.603,1.966,3.998,2.811L63.873-664.388z"
		/>
	<path d="M50.922-686.497c0.907-24.115,34.046-24.705,35.477-24.717l-0.043-5c-0.413,0.004-10.214,0.131-19.978,3.814
		c-13.048,4.922-20.091,13.871-20.464,25.903h2.465H50.922z"/>
	<path d="M51.164-681.497h-2.785h-2.25c0.975,7.863,4.811,13.66,9.938,17.854l3.661-3.416
		C54.907-670.775,52.033-675.597,51.164-681.497z"/>
	<path d="M48.379-686.497h-2.465c-0.01,0.334-0.035,0.661-0.035,1c0,1.392,0.091,2.721,0.25,4h2.25V-686.497z"/>
	<g>
		<path d="M177.164-680.497h24.031l-15.468,14.438c1.252,0.965,2.63,1.857,4.146,2.672l23.689-22.109h-36.641
			c-0.013,0.334-0.043,0.656-0.043,1C176.879-683.112,176.976-681.78,177.164-680.497z"/>
		<path d="M190.518-657.497h-6.955l2.502-2.336c-1.396-0.845-2.735-1.777-3.998-2.811l-10.871,10.146h41.184v-2.826l-0.012,2.5
			C206.355-652.851,198.047-654.108,190.518-657.497z"/>
		<path d="M174.379-680.497h2.785c-0.188-1.283-0.285-2.615-0.285-4c0-0.344,0.03-0.666,0.043-1h-2.543V-680.497z"/>
		<path d="M190.518-657.497c7.529,3.389,15.838,4.646,21.85,4.674l0.012-2.5v-2.174H190.518z"/>
		<path d="M189.873-663.388c-1.516-0.814-2.894-1.707-4.146-2.672l-3.661,3.416c1.263,1.033,2.603,1.966,3.998,2.811
			L189.873-663.388z"/>
		<path d="M176.922-685.497c0.907-24.115,34.046-24.705,35.477-24.717l-0.043-5c-0.413,0.004-10.214,0.131-19.978,3.814
			c-13.048,4.922-20.091,13.871-20.464,25.902h2.465H176.922z"/>
		<path d="M174.379-685.497h-2.465c-0.01,0.334-0.035,0.661-0.035,1c0,1.392,0.091,2.721,0.25,4h2.25V-685.497z"/>
	</g>
	<path d="M277.379-653.497l-2.719-0.012c-13.766-0.062-39.913-6.691-39.913-31.324c0-12.412,6.978-21.571,20.291-26.489
		c9.688-3.579,19.381-3.642,19.789-3.642l-0.003,5.102c-1.399,0.003-33.431,0.365-35.176,23.365h37.731V-653.497z M239.728-681.497
		c0.978,9,6.832,15.684,17.031,19.681c6.011,2.356,11.621,2.964,15.621,3.229v-22.91H239.728z"/>
	<rect x="277.379" y="-658.497" width="39" height="5"/>
	<path fill="none" stroke="#000000" stroke-width="5" stroke-miterlimit="10" d="M143.879-647.323c0,0-37.75-0.174-37.75-29.174
		c0-28,38.125-27.717,38.125-27.717"/>
	<polyline fill="none" stroke="#000000" stroke-width="5" stroke-miterlimit="10" points="106.379,-675.997 129.879,-675.997 
		129.879,-649.497 	"/>
	<path fill="none" stroke="#000000" stroke-width="5" stroke-miterlimit="10" d="M25.379-588.719"/>
	<path fill="none" stroke="#000000" stroke-width="5" stroke-miterlimit="10" d="M-70.621-588.719"/>
	<path fill="none" stroke="#000000" stroke-width="5" stroke-miterlimit="10" d="M1.379-588.719"/>
</g>
<g id="Layer_5">
	<g>
		<g>
			<polygon fill="none" stroke="#000000" stroke-miterlimit="10" points="437.129,-710.497 413.004,-734.497 364.879,-710.497 
				364.879,-662.497 413.379,-638.497 437.129,-662.497 413.379,-685.997 			"/>
			<line fill="none" stroke="#000000" stroke-miterlimit="10" x1="389.379" y1="-722.716" x2="413.379" y2="-685.997"/>
			<line fill="none" stroke="#000000" stroke-miterlimit="10" x1="413.379" y1="-685.997" x2="364.879" y2="-662.497"/>
		</g>
		<g>
			<polygon fill="#F4777C" points="534.832,-710.504 510.102,-735.104 486.625,-723.396 511.082,-686.005 			"/>
			<polygon fill="#F79C7C" points="486.625,-723.396 461.379,-710.807 461.379,-662.187 511.082,-686.005 			"/>
			<polygon fill="#FDD089" points="534.836,-662.501 510.48,-637.889 461.379,-662.187 511.082,-686.005 			"/>
		</g>
	</g>
	<path fill="none" stroke="#000000" stroke-miterlimit="10" d="M25.129-588.719"/>
	<g>
		<polyline fill="none" stroke="#000000" stroke-miterlimit="10" points="633.129,-709.497 609.004,-733.497 560.879,-709.497 
			560.879,-661.497 609.379,-637.497 633.129,-661.497 608.2,-692.936 		"/>
		<line fill="none" stroke="#000000" stroke-miterlimit="10" x1="560.879" y1="-661.497" x2="633.129" y2="-709.497"/>
		<path fill="none" stroke="#000000" stroke-miterlimit="10" d="M619.379-703.716"/>
	</g>
	<path d="M372.609-464.37c-0.686,0-1.375-0.154-2.018-0.473l-44.714-22.146c-1.555-0.77-2.499-2.352-2.499-4.085v-44.312
		c0-1.729,0.94-3.311,2.489-4.08l44.384-22.144c0.646-0.322,1.333-0.479,2.022-0.479c1.18,0,2.34,0.456,3.213,1.327l22.621,22.513
		c0.969,0.965,1.455,2.316,1.318,3.678c-0.133,1.361-0.874,2.592-2.015,3.349l-18.643,12.38l19.573,24.688
		c1.434,1.807,1.292,4.397-0.329,6.036l-22.162,22.396C374.973-464.837,373.801-464.37,372.609-464.37z M371.5-475.579
		l15.977-16.145l-17.09-21.552l-32.051,21.284L371.5-475.579z M333.379-500.703l52.925-35.178l-15.075-15.005l-37.85,18.884
		V-500.703z"/>
	<path d="M205.379-489.22v-48.456l2.482-1.48l45.919-22.932l28.133,28.007l-22.682,15.063l21.51,27.124l-26.529,26.885
		L205.379-489.22z M252.137-476.887l15.558-15.722l-16.643-20.988l-31.214,20.728L252.137-476.887z M215.379-501.354l51.371-34.253
		l-14.617-14.614l-36.754,18.389V-501.354z"/>
	<path d="M87.379-488.946v-48.684l2.255-1.241l46.646-23.251l27.688,27.52l-23.171,15.403l22.222,28.006L136.62-464.62
		L87.379-488.946z M135.048-474.602l17.012-17.192l-18.118-22.848l-34.078,22.628L135.048-474.602z M96.379-499.145l55.023-36.744
		l-16.226-16.261l-38.798,19.433V-499.145z"/>
	<path d="M-68.615-537.387l-24.824-24.701l-48.176,24.16l-0.006,0.138v48.62l48.831,24.298l24.179-24.571l-24.924-31.351
		L-68.615-537.387z M-93.365-560.873l23.573,23.315l-70.829,47.146v-46.759L-93.365-560.873z M-70.08-489.518l-23.184,23.429
		l-47.4-23.455l46.225-30.694L-70.08-489.518z"/>
	<g>
		<polygon fill="#F4777C" points="46.442,-537.314 21.758,-562.088 -26.621,-537.79 -26.621,-489.17 		"/>
		<polygon fill="#FDD089" points="46.422,-489.443 22.107,-464.872 -26.995,-489.17 21.556,-520.804 		"/>
	</g>
	<g>
		<polygon fill="#F4777C" points="209.442,-421.314 184.758,-446.088 136.379,-421.79 136.379,-373.17 		"/>
		<polygon fill="#FDD089" points="209.422,-373.443 185.107,-348.872 136.379,-373.17 184.496,-404.876 		"/>
	</g>
	<g>
		<polygon fill="#B3B3B3" points="46.442,-419.314 21.758,-444.088 -26.621,-419.79 -26.621,-371.17 		"/>
		<polygon fill="#666666" points="45.422,-371.443 21.107,-346.872 -27.995,-371.17 20.556,-402.804 		"/>
	</g>
	<g>
		<polygon fill="#666666" points="46.442,-301.314 21.758,-326.088 -26.621,-301.79 -26.621,-253.17 		"/>
		<polygon fill="#B3B3B3" points="45.422,-253.443 21.107,-228.872 -27.995,-253.17 20.556,-284.804 		"/>
	</g>
	<g>
		<circle fill="#E6E6E6" cx="626.213" cy="-513.497" r="48.625"/>
		<g>
			<polygon fill="#FDD089" points="652.549,-510.226 646.025,-490.459 613.213,-490.481 630.776,-520.457 			"/>
			<polygon fill="#F4777C" points="639.98,-536.166 619.891,-542.835 600.18,-516.695 613.213,-490.481 			"/>
		</g>
	</g>
	<path fill="#E6E6E6" d="M606.586-448.565"/>
	<g>
		<circle fill="#E6E6E6" cx="626.213" cy="-395.497" r="48.625"/>
		<g>
			<polygon fill="#F46C77" points="648.688,-409.804 633.668,-424.72 604.379,-410.091 604.379,-380.815 			"/>
			<polygon fill="#FDD089" points="648.391,-380.979 633.75,-366.186 604.188,-380.815 633.42,-399.862 			"/>
		</g>
	</g>
	<circle fill="#E6E6E6" cx="231.407" cy="-142.48" r="48.625"/>
	<g>
		<circle fill="#E6E6E6" cx="626.213" cy="-277.497" r="48.625"/>
		<g>
			<polygon fill="#F25F71" points="648.688,-291.804 633.668,-306.72 604.379,-292.091 604.379,-262.815 			"/>
			<polygon fill="#FDD089" points="648.391,-262.979 633.75,-248.186 604.188,-262.815 633.42,-281.862 			"/>
		</g>
	</g>
	<g>
		<circle fill="#E6E6E6" cx="626.213" cy="-160.497" r="48.625"/>
		<g>
			<polygon fill="#F46C77" points="648.688,-174.804 633.668,-189.72 604.379,-175.091 604.379,-145.815 			"/>
			<polygon fill="#FCD297" points="648.391,-145.979 633.75,-131.186 604.188,-145.815 633.42,-164.862 			"/>
		</g>
	</g>
	<g>
		<path d="M488.512-561.921c-26.762,0-48.457,21.694-48.457,48.455c0,26.762,21.695,48.457,48.457,48.457
			s48.457-21.695,48.457-48.457C536.969-540.227,515.273-561.921,488.512-561.921z M511.205-500.213l-16.089,16.455l-29.737-14.817
			v-29.655l1.368-0.906l28.03-14.035l17.179,17.14l-13.904,9.22L511.205-500.213z"/>
		<polygon points="494.272,-535.91 472.379,-524.655 472.379,-506.002 503.533,-526.965 		"/>
		<polygon points="473.926,-500.809 493.693,-491.027 503.215,-500.649 493.029,-513.494 		"/>
	</g>
	<g>
		<path fill="#666666" d="M488.512-443.784c-26.762,0-48.457,21.695-48.457,48.455c0,26.762,21.695,48.457,48.457,48.457
			s48.457-21.695,48.457-48.457C536.969-422.089,515.273-443.784,488.512-443.784z M511.205-382.075l-16.089,16.454l-29.737-14.817
			v-29.655l1.368-0.906l28.03-14.034l17.179,17.139l-13.902,9.221L511.205-382.075z"/>
		<polygon fill="#666666" points="494.272,-417.772 472.379,-406.519 472.379,-387.864 503.533,-408.828 		"/>
		<polygon fill="#666666" points="473.926,-382.671 493.693,-372.891 503.215,-382.513 493.029,-395.356 		"/>
	</g>
	<g>
		<polygon fill="#F4777C" points="494.445,-299.355 472.379,-288.261 472.379,-269.871 503.154,-290.538 		"/>
		<polygon fill="#F4777C" points="474.631,-264.751 494.12,-255.108 503.507,-264.595 493.464,-277.257 		"/>
		<path fill="#F4777C" d="M489.064-325.784c-26.817,0-48.558,21.739-48.558,48.556c0,26.817,21.74,48.558,48.558,48.558
			c26.816,0,48.557-21.74,48.557-48.558C537.621-304.045,515.881-325.784,489.064-325.784z M511.392-264.162l-15.776,16.221
			l-29.236-14.608v-29.236l1.262-0.893l27.587-13.836l16.916,16.898l-13.716,9.088L511.392-264.162z"/>
	</g>
	<g>
		<polygon fill="#F4777C" points="494.445,-182.355 472.379,-171.261 472.379,-152.871 503.154,-173.538 		"/>
		<polygon fill="#F4777C" points="474.631,-147.751 494.12,-138.108 503.507,-147.595 493.464,-160.257 		"/>
		<path fill="#F4777C" d="M489.064-208.784c-26.817,0-48.558,21.739-48.558,48.556c0,26.817,21.74,48.558,48.558,48.558
			c26.816,0,48.557-21.74,48.557-48.558C537.621-187.045,515.881-208.784,489.064-208.784z M511.392-147.162l-15.776,16.221
			l-29.236-14.608v-29.236l1.262-0.893l27.587-13.836l16.916,16.898l-13.716,9.088L511.392-147.162z"/>
	</g>
	<g>
		<polygon fill="none" stroke="#000000" stroke-miterlimit="10" points="-63.389,-647.997 -83.156,-682.497 -63.389,-716.997 
			-23.854,-716.997 -4.086,-682.497 -23.854,-647.997 		"/>
		<line fill="none" stroke="#000000" stroke-miterlimit="10" x1="-23.854" y1="-716.997" x2="-63.389" y2="-647.997"/>
		<line fill="none" stroke="#000000" stroke-miterlimit="10" x1="-63.389" y1="-716.997" x2="-23.854" y2="-647.997"/>
	</g>
	<line fill="none" stroke="#000000" stroke-miterlimit="10" x1="-4.086" y1="-682.497" x2="-43.621" y2="-682.497"/>
	<polygon fill="none" stroke="#000000" stroke-miterlimit="10" points="-69.086,-152.497 -88.854,-186.997 -108.621,-152.497 	"/>
	<polygon fill="#FDD089" points="-108.621,-152.497 -128.389,-117.997 -88.854,-117.997 -69.086,-152.497 	"/>
	<polygon fill="#F4777C" points="-88.854,-186.997 -128.389,-186.997 -148.156,-152.497 -128.389,-117.997 -108.621,-152.497 	"/>
	<polygon fill="#FDD089" points="-4.621,-152.497 -24.389,-117.997 15.146,-117.997 34.914,-152.497 	"/>
	<polygon fill="#F4777C" points="15.146,-186.997 -24.389,-186.997 -44.156,-152.497 -24.389,-117.997 -4.621,-152.497 	"/>
	<g>
		<line fill="none" stroke="#000000" stroke-miterlimit="10" x1="126.914" y1="-256.497" x2="107.146" y2="-221.997"/>
		<path fill="none" stroke="#000000" stroke-miterlimit="10" d="M126.914-256.497"/>
		<path fill="none" stroke="#000000" stroke-miterlimit="10" d="M166.449-256.497"/>
		<polygon fill="none" stroke="#000000" stroke-miterlimit="10" points="107.146,-221.997 87.379,-256.497 107.146,-290.997 
			146.682,-290.997 126.914,-256.497 146.682,-221.997 		"/>
	</g>
	<g>
		<line fill="none" stroke="#000000" stroke-miterlimit="10" x1="50" y1="-204.553" x2="33.871" y2="-176.403"/>
		<polygon fill="none" stroke="#000000" stroke-miterlimit="10" points="33.871,-176.403 17.743,-204.553 33.871,-232.701 
			66.129,-232.701 50,-204.553 66.129,-176.403 		"/>
	</g>
	<path fill="none" stroke="#000000" stroke-width="2" stroke-miterlimit="10" d="M178.696-256.497"/>
	<g>
		
			<line fill="none" stroke="#000000" stroke-width="2" stroke-miterlimit="10" x1="178.696" y1="-256.497" x2="158.929" y2="-221.997"/>
		<polygon fill="none" stroke="#000000" stroke-width="2" stroke-miterlimit="10" points="158.929,-221.997 139.161,-256.497 
			158.929,-290.997 198.464,-290.997 178.696,-256.497 198.464,-221.997 		"/>
	</g>
	<g>
		<polygon fill="#FDD089" points="231.379,-256.838 211.611,-222.338 251.146,-222.338 		"/>
		<path fill="none" stroke="#000000" stroke-width="2" stroke-miterlimit="10" d="M218.231-256.497"/>
		<polygon fill="#F4777C" points="251.146,-291.338 211.611,-291.338 191.844,-256.838 211.611,-222.338 231.379,-256.838 		"/>
	</g>
	<g>
		<polygon fill="#FDD089" points="239.471,-142.48 223.342,-114.332 255.6,-114.332 		"/>
		<path fill="none" stroke="#000000" stroke-width="2" stroke-miterlimit="10" d="M228.744-142.203"/>
		<polygon fill="#F4777C" points="255.6,-170.63 223.342,-170.63 207.214,-142.48 223.342,-114.332 239.471,-142.48 		"/>
	</g>
	<circle fill="#E6E6E6" cx="50" cy="50" r="48.625"/>
	<g>
		<polygon fill="#FDD089" points="58.064,50 41.935,78.148 74.192,78.148 		"/>
		<path fill="none" stroke="#000000" stroke-width="2" stroke-miterlimit="10" d="M47.336,50.277"/>
		<polygon fill="#F4777C" points="74.192,21.851 41.935,21.851 25.807,50 41.935,78.148 58.064,50 		"/>
	</g>
	<g>
		<circle fill="#E6E6E6" cx="296.879" cy="50" r="48.625"/>
		<g>
			<polygon fill="#FDD089" points="304.943,50 288.814,78.148 321.072,78.148 			"/>
			<path fill="none" stroke="#000000" stroke-width="2" stroke-miterlimit="10" d="M294.215,50.277"/>
			<polygon fill="#F4777C" points="321.072,21.852 288.814,21.852 272.686,50 288.814,78.148 304.943,50 			"/>
		</g>
	</g>
	<circle fill="#E6E6E6" cx="124.276" cy="-142.48" r="48.625"/>
	<g>
		<polygon fill="#B3B3B3" points="132.34,-142.48 116.211,-114.332 148.468,-114.332 		"/>
		<path fill="none" stroke="#000000" stroke-width="2" stroke-miterlimit="10" d="M121.612-142.203"/>
		<polygon fill="#808080" points="148.468,-170.63 116.211,-170.63 100.083,-142.48 116.211,-114.332 132.34,-142.48 		"/>
	</g>
	<g>
		<polygon fill="#FDD089" points="291.828,-256.838 311.596,-222.338 272.061,-222.338 		"/>
		<path fill="none" stroke="#000000" stroke-width="2" stroke-miterlimit="10" d="M304.976-256.497"/>
		<polygon fill="#F4777C" points="272.061,-291.338 311.596,-291.338 331.363,-256.838 311.596,-222.338 291.828,-256.838 		"/>
	</g>
	<g>
		<path fill="#E6E6E6" d="M331.363-186.733c-26.854,0-48.625,21.77-48.625,48.625s21.771,48.625,48.625,48.625
			c26.855,0,48.625-21.77,48.625-48.625S358.219-186.733,331.363-186.733z M355.557-109.96h-32.258l-16.128-28.149l16.128-28.148
			h32.258l-16.129,28.148L355.557-109.96z"/>
	</g>
	<g>
		<line fill="none" stroke="#000000" stroke-miterlimit="10" x1="339.428" y1="-138.109" x2="323.299" y2="-109.96"/>
		<polygon fill="none" stroke="#000000" stroke-miterlimit="10" points="323.299,-109.96 307.171,-138.109 323.299,-166.258 
			355.557,-166.258 339.428,-138.109 355.557,-109.96 		"/>
	</g>
</g>
<g id="Layer_4">
</g>
<g id="Layer_3" display="none">
</g>
<g id="Layer_2" display="none">
</g>
</svg>
